<?xml version="1.0" encoding="UTF-8"?>
<svg id="Layer_1" xmlns="http://www.w3.org/2000/svg" version="1.1" viewBox="0 0 344 261">
  <!-- Generator: Adobe Illustrator 30.0.0, SVG Export Plug-In . SVG Version: 2.1.1 Build 123)  -->
  <defs>
    <style>
      .st0 {
        fill: #d12f13;
      }

      .st1 {
        fill: #bc2026;
      }

      .st2 {
        fill: #3e4952;
      }
    </style>
  </defs>
  <path class="st1" d="M340.49,133.2c0-7.18-4.29-10.71-10.77-16.55-6.47-5.84-17.08-14.1-23.51-18.7s-16.82-11.69-24.01-15.85-13.01-6.96-16.51-6.96-5.93,1.33-7.66,4.09c-1.73,2.76-2.74,6.81-3.42,11.95-.73,6.09-1.15,12.22-1.24,18.37-.17,7.08-.2,23.66-.2,23.66,0,0,0,16.58.2,23.66.09,6.15.51,12.28,1.24,18.37.68,5.12,1.7,9.17,3.42,11.95s4.16,4.11,7.66,4.11,9.29-2.78,16.55-6.97,17.61-11.25,24.01-15.85,17.14-12.99,23.51-18.7c6.37-5.71,10.77-9.36,10.77-16.55"/>
  <path class="st0" d="M330.91,124.43h-1.35c-.63,0-1.14.63-1.14,1.39v14.77c0,.76.51,1.38,1.14,1.39h1.35c.63,0,1.14-.63,1.14-1.39v-14.77c0-.76-.51-1.38-1.14-1.39"/>
  <path class="st0" d="M289.6,120.05h1.35c.64,0,1.15-.62,1.15-1.39v-23.57c0-.77-.52-1.39-1.15-1.39h-1.35c-.63,0-1.14.62-1.14,1.37,0,0,0,.01,0,.02v23.57c0,.76.51,1.38,1.14,1.39"/>
  <path class="st0" d="M301.84,159.51h-1.34c-.63-.02-1.15.59-1.16,1.34,0,.01,0,.02,0,.03v1.63c0,.76.51,1.37,1.14,1.37,0,0,.02,0,.03,0h1.32c.64,0,1.16-.61,1.16-1.37h0v-1.63c0-.77-.53-1.38-1.16-1.37h0"/>
  <path class="st0" d="M273.93,98.08h-3.65v-8.77h3.63l.02,8.77ZM260.53,111.23h15.89c.63,0,1.14-.62,1.14-1.37v-7.29h6.11c.63,0,1.14-.6,1.15-1.36,0,0,0-.01,0-.02v-10.45c0-.77-.52-1.39-1.15-1.39h-1.35c-.63.02-1.13.63-1.14,1.39v7.47h-3.63v-11.86c0-.76-.51-1.37-1.14-1.37h-8.66c-.63,0-1.14.62-1.14,1.37v14.73c0,.76.52,1.37,1.15,1.37h6.13v4.45h-10.9v-16.16c0-.76-.51-1.37-1.14-1.37h-1.36c-.63,0-1.14.62-1.14,1.37v19.16c0,.76.51,1.37,1.14,1.37.01,0,.03,0,.04,0v-.04Z"/>
  <path class="st0" d="M323.66,120.05h-1.35c-.63,0-1.14.61-1.15,1.37v20.55h-6.13c-.63,0-1.14.62-1.14,1.37v7.39h-3.64v-7.39c0-.76-.51-1.38-1.14-1.39h-12.25c-.63,0-1.14.63-1.14,1.39v1.63c0,.76.51,1.37,1.14,1.37h9.83v4.39h-14.59v-13.16h9.74c.63,0,1.15-.61,1.16-1.37v-1.63c0-.77-.53-1.39-1.16-1.39h-12.24c-.63,0-1.14.63-1.14,1.39v19.16c0,.76.51,1.37,1.14,1.37h17.09v2.99c0,.76.51,1.38,1.14,1.39h1.34c.63,0,1.14-.63,1.14-1.39v-2.99h6.19c.63,0,1.14-.63,1.14-1.39v-7.38h6.19c.63,0,1.14-.62,1.14-1.37h0v-23.55c0-.76-.51-1.37-1.14-1.37h0"/>
  <path class="st0" d="M294.59,159.51h-8.66c-.63,0-1.14.62-1.14,1.37v7.47h-21.76v-4.47h17.02c.63,0,1.14-.62,1.14-1.37v-1.61c0-.76-.5-1.38-1.13-1.39,0,0,0,0-.01,0h-19.52c-.63,0-1.14.62-1.14,1.37v10.45c.01.75.52,1.36,1.14,1.37h26.78c.63,0,1.14-.61,1.15-1.37v-7.44h3.63v2.99c0,.75.5,1.37,1.13,1.37h1.37c.63,0,1.14-.62,1.14-1.37v-5.97c0-.76-.51-1.37-1.14-1.37"/>
  <path class="st0" d="M265.48,177.05h-1.24c-.64.04-1.14.65-1.18,1.42v1.49c0,.8.52,1.45,1.18,1.49h1.24c.68,0,1.24-.67,1.24-1.49v-1.49c-.03-.8-.58-1.42-1.24-1.42"/>
  <path class="st0" d="M272.75,177.05h-1.3c-.64.04-1.14.65-1.18,1.42v1.49c0,.8.52,1.45,1.18,1.49h1.3c.66-.04,1.18-.7,1.18-1.49v-1.49c-.03-.77-.54-1.38-1.18-1.42"/>
  <rect class="st0" x="259.39" y="150.74" width="3.63" height="4.38" rx=".95" ry=".95"/>
  <rect class="st0" x="266.65" y="150.74" width="3.63" height="4.38" rx=".95" ry=".95"/>
  <path class="st0" d="M273.93,152.16v1.49c0,.78.51,1.41,1.15,1.42,0,0,.02,0,.02,0h8.56c.63,0,1.14-.6,1.15-1.36,0,0,0,0,0-.02v-19.12c0-.77-.52-1.39-1.15-1.39h-1.35c-.63.02-1.13.63-1.14,1.39v16.16h-6.08c-.64,0-1.17.61-1.18,1.39,0,.04,0,.07,0,.11"/>
  <path class="st0" d="M307.8,133.2c-.68,0-1.24.67-1.24,1.49v1.49c0,.82.55,1.49,1.24,1.49h1.24c.66-.04,1.18-.7,1.18-1.49v-1.49c0-.8-.52-1.45-1.18-1.49h-1.24Z"/>
  <path class="st0" d="M304.21,106.89h1.24c.64,0,1.17-.58,1.24-1.34v-1.49c0-.82-.55-1.49-1.24-1.49h-1.24c-.63.05-1.12.66-1.15,1.42v1.49c.03.76.52,1.37,1.15,1.42"/>
  <path class="st0" d="M283.65,106.89h-1.24c-.68,0-1.24.67-1.24,1.49v1.49c.04.79.58,1.41,1.24,1.4h1.24c.66,0,1.2-.61,1.24-1.4v-1.49c0-.82-.55-1.49-1.24-1.49"/>
  <path class="st0" d="M276.38,124.43h-1.24c-.66.04-1.18.7-1.18,1.49v1.49c.03.77.54,1.38,1.18,1.42h1.24c.66,0,1.2-.62,1.24-1.42v-1.49c0-.82-.55-1.49-1.24-1.49"/>
  <path class="st0" d="M316.34,133.2h-1.24c-.65.05-1.16.7-1.16,1.49v1.49c0,.79.51,1.45,1.16,1.49h1.24c.64,0,1.17-.61,1.18-1.39,0-.04,0-.07,0-.11v-1.49c.04-.77-.45-1.44-1.09-1.49-.03,0-.06,0-.09,0"/>
  <path class="st0" d="M299.35,120.05h10.9v-4.39h3.64v8.77h-14.54v-4.38ZM260.53,146.35h15.89c.63,0,1.14-.62,1.14-1.37v-10.45c0-.76-.51-1.37-1.14-1.37h-6.11v-13.1h10.88v7.35c.03.8.58,1.42,1.24,1.42h34.02c.63,0,1.14-.63,1.14-1.39v-14.79c0-.76-.51-1.37-1.14-1.37h-8.66c-.63,0-1.14.62-1.15,1.37v2.99h-7.28v-16.06c0-.76-.51-1.37-1.14-1.37h-1.35c-.63,0-1.14.62-1.14,1.37v24.85h-10.9v-7.39c0-.76-.52-1.37-1.15-1.37h-15.87c-.63,0-1.14.61-1.15,1.37v19.18c0,.76.52,1.37,1.15,1.37h6.13v4.38h-10.9v-24.91c0-.76-.51-1.38-1.14-1.39h-1.36c-.63,0-1.14.62-1.14,1.37v27.94c0,.76.51,1.37,1.14,1.37Z"/>
  <path class="st2" d="M119.39,103.5h0c0-.43.29-.78.64-.78h2.25c.37-.02.69.33.71.78v2.75c-.01.45-.33.81-.7.79,0,0,0,0,0,0h-2.25c-.34,0-.62-.31-.64-.72v-2.82ZM20.99,161.29h0l6-20.21,4.37-13.13,4.22,13.16,5.88,20.21-20.47-.03ZM37.68,121.25h0c-.85-2.2-1.24-3.42-3.86-3.42h-5.02c-2.3,0-3.09,1.22-3.77,3.42-.51,1.75-21.55,66.9-21.55,66.9.02,1.22.86,2.19,1.87,2.16.05,0,.1,0,.15-.01h5.41c.76-.08,1.43-.65,1.75-1.49l5.82-19.28h25.85l5.75,19.28c.31.86,1,1.43,1.77,1.49h5.1c2.23,0,2.23-2.15,2.23-2.15l-21.49-66.9ZM217.14,181.42h-13.43v-24.76h13.39c6.34,0,10.12,5.24,10.12,12.55,0,7.56-3.79,12.22-10.12,12.22h.04ZM203.71,126.65h12.38c5.57,0,9.11,4.63,9.11,11.1,0,6.06-3.54,10.59-9.11,10.59h-12.38v-21.69ZM225.98,152.04h0c4.86-2.36,7.87-8.18,7.87-15.47,0-12.02-7.34-18.7-17.71-18.7h-18.37c-2.22,0-2.72,2.81-2.72,3.42v65.92c0,.93,0,3.08,2.72,3.08h18.76c10.64,0,19.24-6.75,19.24-20.82.16-7.77-3.8-14.8-9.85-17.47l.05.04ZM180.86,174.61h0c-.68-1.49-1.77-.87-2.48,0-4.68,4.77-10.62,7.38-16.74,7.36-13.19,0-22.28-12.77-22.28-28.38s8.66-27.38,21.78-27.38c5.4.01,10.66,2.01,15.1,5.72,2.17,1.58,2.65,1.58,3.94,0,.68-1.49,1.73-3.66,1.73-3.66,0,0,1.24-2.06,0-3.12-6.06-5.24-13.31-8.1-20.77-8.18-17.48,0-30.38,15.86-30.38,36.62s12.38,37.56,30.38,37.56c8.06.07,15.88-3.37,22-9.69,1.24-.99.75-1.91.25-3.15-.76-1.31-1.61-2.55-2.54-3.7ZM88.25,181.42h-10.67v-54.77h10.67c13.71,0,22.28,9.87,22.28,27.59.02,17.32-8.56,27.18-22.28,27.18ZM89.3,117.83h-17.76c-.54,0-2.05.61-2.05,3.42v65.97c0,3.08,2.05,3.08,2.05,3.08h17.76c17.93,0,30.33-13.53,30.33-36.05s-12.4-36.41-30.33-36.41ZM14.61,106.46h0c0-.41.29-.74.63-.73,0,0,0,0,.01,0h1.93c.33-.02.62.3.63.7,0,.01,0,.02,0,.03v2.43c-.03.39-.31.68-.63.67h-1.88c-.34.05-.65-.24-.69-.65,0,0,0-.02,0-.02v-2.43ZM9.36,106.46h0c0-.4.27-.73.6-.73.02,0,.03,0,.05,0h1.92c.33-.03.63.27.65.67,0,.02,0,.04,0,.06v2.43c-.04.4-.33.69-.66.67h-1.87c-.33.03-.63-.26-.66-.67,0,0,0,0,0,0l-.05-2.43ZM4.81,92.54h0c.04-1.5.17-3,.4-4.48.09-.52.17-.69.59-.69h2.19c.32,0,.48.21.48.66-.09.99-.16,2.12-.16,2.76,0,4.76.64,8.33,5.73,8.33.88,0,1.76-.06,2.64-.21.09-2.3.09-3.36.09-5.21v-3.09c0-5.24,2.57-7.62,7.43-7.62,1.35,0,2.7.15,4.03.45.3.1.48.24.48.69v14.83c.01.38-.23.7-.54.72,0,0-.02,0-.03,0h-2.48c-.31,0-.55-.31-.55-.69,0-.01,0-.02,0-.03v-11.75c-.5-.09-1-.14-1.5-.13-2.15,0-3.25.99-3.25,4v5.66c0,1.63,0,3.76-.12,5.38,0,.4-.2.64-.63.75-1.88.34-3.77.51-5.67.51-6.49,0-9.13-3.79-9.13-10.83ZM29.79,104.61h0c0-.34.19-.52.48-.52h.59c2.14,0,2.9-.24,2.9-2.99v-16.8c0-.35.22-.65.52-.66.02,0,.03,0,.05,0h2.48c.29,0,.53.29.53.64,0,0,0,.01,0,.02v16.23c.1,1.6-.13,3.21-.66,4.69-.88,1.96-2.26,2.67-4.74,2.67-.59.01-1.18-.02-1.77-.1-.26-.05-.44-.34-.41-.66l.02-2.52ZM41.51,74.37h0c0-.39.27-.7.59-.69,0,0,0,0,0,0h2.48c.3-.03.56.25.58.61,0,.03,0,.05,0,.08v19.24c0,1.49.52,1.75,1.6,1.75h.93v4.38h-1.96c-2.57,0-4.22-.82-4.22-4.82v-20.54ZM53.68,103.5h0c0-.43.29-.78.64-.78,0,0,0,0,.01,0h2.19c.37-.02.69.33.71.78v2.75c-.04.42-.35.74-.71.72h-2.19c-.34,0-.63-.31-.66-.72v-2.75ZM47.73,99.74h0c-.46,0-.93-.24-.93-.4v-3.57c0-.24.48-.4.93-.4h12.38l-1.34-3.57c-1.1-2.91-3.03-4.76-6.65-4.76l-1.52.07c-.4,0-.59-.13-.59-.55v-2.52c0-.34.2-.55.56-.66.92-.23,1.86-.33,2.8-.31,4.13,0,7.12,1.99,9.38,8.18.59,1.64,1.14,3.29,1.35,3.63.1.32.36.52.64.49h.28v4.38h-17.29ZM71.9,77.79h0c.02-.44.32-.79.69-.79h1.98c.36,0,.64.35.64.78,0,0,0,.01,0,.02v2.67c0,.41-.28.75-.62.75,0,0-.02,0-.03,0h-1.98c-.36.02-.67-.31-.69-.75v-2.67ZM66.59,77.79h0c.01-.45.32-.8.69-.79h1.96c.37,0,.69.34.71.79v2.67c-.04.43-.35.75-.71.75h-1.91c-.37.05-.7-.27-.74-.71,0-.01,0-.02,0-.04v-2.67ZM63.93,95.71h0c0-.24.51-.4.95-.4h2.62c.64,0,1.65-.1,1.65-1.16v-9.84c0-.36.24-.66.54-.66.01,0,.03,0,.04,0h2.48c.29,0,.54.27.54.63,0,.01,0,.02,0,.03v10.45c.24.48,1.34.58,1.84.58h.66v4.38h-.33c-1.41.14-2.83-.27-4.03-1.16-1.18.82-2.53,1.23-3.9,1.16h-2.1c-.45,0-.95-.13-.95-.4v-3.6ZM74.33,95.71h0c0-.24.51-.4.93-.4h2.48c.89,0,1.1,0,1.1-1.14v-19.77c-.01-.38.23-.7.54-.72,0,0,0,0,.01,0h2.67c.31,0,.55.31.55.69,0,.01,0,.02,0,.03v19.91c0,1.22,0,2.84-.15,4.06-.04.45-.29.84-.64,1-1.55.29-3.11.41-4.68.37h-1.88c-.42,0-.93-.13-.93-.4v-3.63ZM86.23,74.37h0c0-.37.24-.68.54-.69.01,0,.03,0,.04,0h2.48c.31-.02.57.27.58.64,0,.02,0,.03,0,.05v24.66c0,.39-.25.71-.57.72,0,0,0,0-.01,0h-2.48c-.32,0-.58-.31-.58-.7,0,0,0-.01,0-.02v-24.66ZM108.67,106.46h0c0-.4.25-.72.58-.73,0,0,.02,0,.03,0h1.87c.33-.02.62.3.63.7,0,.01,0,.02,0,.03v2.43c-.03.39-.31.68-.63.67h-1.93c-.32,0-.59-.29-.61-.67l.06-2.43ZM103.39,106.46h0c0-.4.27-.73.6-.73.02,0,.03,0,.05,0h1.89c.33-.02.62.28.64.69,0,.02,0,.03,0,.05v2.43c-.04.39-.32.68-.64.67h-1.96c-.33.03-.62-.27-.66-.67l.06-2.43ZM98.77,92.54h0c.03-1.5.16-3,.37-4.48,0-.45.26-.69.57-.69h2.19c.36,0,.51.21.48.66-.09.99-.16,2.12-.16,2.76,0,4.76.67,8.33,5.74,8.33.89,0,1.77-.06,2.65-.21.09-2.3.09-3.36.09-5.21v-3.09c0-5.21,2.61-7.62,7.29-7.62,1.37,0,2.74.15,4.08.45.32.1.47.24.47.69v9.96c0,1,.32,1.21,1.32,1.21h1.24v4.38h-2.22c-2.61,0-3.96-.75-3.96-4.32v-8.21c-.46-.1-.93-.14-1.4-.13-2.14,0-3.27.99-3.27,4v5.72c0,1.63,0,3.76-.1,5.38,0,.4-.21.64-.63.75-1.88.34-3.77.51-5.67.51-6.5,0-9.1-3.79-9.1-10.83ZM142.56,95.45h0c.5,0,.58-.37.58-2.26v-.51c0-4.18-1.62-5.53-5.33-5.53-1.85-.1-3.69.42-5.31,1.49v6.74h3.4l6.66.06ZM124.55,95.98h0c0-.35.24-.62.53-.61,0,0,.02,0,.03,0h3.71v-20.91c-.02-.37.21-.69.52-.72.02,0,.04,0,.06,0h2.57c.31,0,.55.31.55.69,0,.01,0,.02,0,.03v10.45c1.88-1.29,4.02-1.93,6.19-1.85,4.85,0,7.98,2.39,7.98,9.17v1.37c0,1.68-.12,3.35-.37,5-.08.55-.46.96-.92,1-1.05.16-5.27.16-6.89.16h-13.43c-.29.02-.54-.24-.56-.58,0-.01,0-.02,0-.03l.02-3.18ZM136.67,76.11h0c0-.44.29-.79.66-.79,0,0,.02,0,.03,0h2.26c.36,0,.64.36.63.79h0v2.67c0,.42-.29.75-.64.75,0,0,0,0,0,0h-2.22c-.34.04-.64-.26-.68-.67,0-.03,0-.05,0-.08l-.04-2.67ZM155.23,91.66h0c0,2.6.88,3.84,3,3.84h2.14v-8.36c-.54,0-1.14-.1-1.73-.1-1.72-.19-3.25,1.33-3.41,3.41-.02.26-.02.52,0,.77v.45ZM152.76,104.58h0c0-.3.21-.53.46-.52,0,0,0,0,.01,0h2.57c2.96,0,4.53-.61,4.53-3.21v-1.03h-2.15c-4.11,0-6.57-2.57-6.57-7.47v-.69c0-5.38,2.71-8.47,7.6-8.47,1.41-.01,2.81.18,4.18.58.36.18.47.28.47.66v11.07h2.48v4.38h-2.56v1.16c-.37,5.62-3.4,6.99-7.3,6.99-1.13.04-2.27-.02-3.39-.18-.37-.09-.46-.27-.46-.64l.14-2.63ZM168.3,103.5h0c.01-.43.3-.77.66-.78h2.19c.37,0,.67.33.69.78v2.75c-.04.42-.34.74-.69.72h-2.19c-.34,0-.62-.31-.66-.72v-2.75ZM166.37,99.74h0c-.43,0-.93-.13-.93-.4v-3.57c0-.24.5-.4.93-.4h2.95c.89,0,1.13,0,1.13-1.14v-5.35c0-1.4,0-2.99-.06-4.59,0-.36.24-.66.54-.66.01,0,.03,0,.04,0h2.36c.3-.06.58.19.62.54,0,.04,0,.08,0,.11,0,1.49.06,2.54.06,3.52v4.48c0,2.91,0,4.87-.11,6.09-.05.45-.3.83-.64,1-1.51.29-3.05.41-4.58.37l-2.31-.03ZM179,79.13h0c-.01-.36.22-.67.52-.69.01,0,.03,0,.04,0h2.56c.3-.02.56.26.57.63,0,.02,0,.04,0,.06v19.89c.01.38-.23.7-.54.72,0,0-.02,0-.03,0h-2.56c-.31,0-.56-.32-.56-.7,0,0,0-.01,0-.02v-19.89ZM178.49,76.28h0c-.31,0-.45-.13-.45-.4v-1c0-.24.14-.34.45-.34h.54c-.31-.58-.47-1.25-.46-1.94,0-1.93.94-2.88,2.85-2.88.45,0,.9.07,1.34.21.19,0,.31.16.31.34v.94c0,.24-.12.34-.37.34h-1c-1,0-1.42.37-1.42,1.36-.04.62.18,1.23.59,1.61h1.98c.32,0,.46.1.46.34v1.03c0,.27-.14.4-.46.4h-4.36ZM198.48,86.13h0c0-.28.15-.42.51-.42h.42c-.25-.59-.38-1.25-.37-1.91,0-2.23,1.16-3.44,3.21-3.44.48,0,.96.07,1.42.21.23.05.39.3.37.58v1.24c.03.21-.09.41-.26.45-.04,0-.07,0-.11,0l-1.14-.07c-.61-.09-1.16.44-1.24,1.18-.01.11-.01.21,0,.32-.02.53.14,1.04.45,1.42h2.14c.33,0,.51.16.51.46v1.4c0,.31-.17.49-.51.49h-4.86c-.36,0-.51-.18-.51-.49l-.02-1.42ZM194.41,88.91h0c.32,0,.5.19.5.64v1.49c0,3.29,1.36,4.26,5.14,4.26h6.87c.69,0,1.62-.1,1.62-1.16v-19.74c0-.39.25-.71.57-.72,0,0,0,0,0,0h2.55c.32,0,.58.33.58.72v20.39c.22.48,1.24.58,1.77.58h.75v4.38h-.36c-1.35.07-2.69-.26-3.91-.96-1.22.72-2.57,1.05-3.92.96h-7.15c-6.06,0-7.86-2.7-7.86-7.47,0-.9.06-1.79.17-2.67.11-.51.24-.67.61-.67h2.08ZM219.03,77.82h0c0-.44.29-.79.66-.79,0,0,0,0,.01,0h2.24c.35,0,.63.34.63.76,0,.01,0,.02,0,.03v2.69c0,.42-.29.75-.64.75,0,0,0,0,0,0h-2.23c-.34.03-.64-.27-.67-.68,0-.02,0-.04,0-.06v-2.69ZM214.73,99.74h0c-.42,0-.93-.13-.93-.4v-3.57c0-.24.51-.4.93-.4h2.66c.66,0,1.66-.1,1.66-1.16v-9.9c0-.35.22-.65.52-.66.02,0,.03,0,.05,0h2.48c.29,0,.54.27.54.63,0,.01,0,.02,0,.03v10.45c.22.48,1.32.58,1.83.58h.69v4.38h-.33c-1.41.14-2.83-.27-4.03-1.16-1.19.83-2.54,1.23-3.91,1.16l-2.15.03ZM226.8,103.5h0c0-.43.29-.77.64-.78h2.19c.37-.02.69.33.71.78v2.75c-.04.42-.35.74-.71.72h-2.15c-.34,0-.62-.31-.64-.72l-.04-2.75ZM225.16,99.74c-.43,0-.94-.13-.94-.4v-3.57c0-.24.51-.4.94-.4h2.64c.9,0,1.13,0,1.13-1.14v-10.04c0-.35.24-.64.53-.64.02,0,.03,0,.05,0h2.38c.42,0,.61.27.62.64v8.01c0,2.91,0,4.87-.1,6.09-.05.45-.3.84-.66,1-1.51.29-3.05.42-4.58.37l-2,.07Z"/>
</svg>