<?xml version="1.0" encoding="UTF-8"?>
<svg id="Layer_1" xmlns="http://www.w3.org/2000/svg" version="1.1" viewBox="0 0 344 261">
  <!-- Generator: Adobe Illustrator 30.0.0, SVG Export Plug-In . SVG Version: 2.1.1 Build 123)  -->
  <defs>
    <style>
      .st0 {
        fill: #d7000f;
      }

      .st1 {
        fill: #004898;
      }
    </style>
  </defs>
  <path class="st0" d="M22.22,88.18v100.48c2.45,1.96,5.09,3.61,7.82,4.82v-85.42c.09-8.6-3.11-16.28-7.82-19.89"/>
  <path class="st0" d="M59.53,88.18v100.48c-2.45,1.96-5.09,3.61-7.82,4.82v-85.42c0-8.6,3.2-16.28,7.82-19.89"/>
  <path class="st0" d="M59.62,74.16c0-1.2-.38-2.11-1.03-2.56-5.37-4.07-11.39-6.48-17.71-6.48s-12.34,2.26-17.71,6.48h0c-.56.45-1.03,1.5-1.03,2.56,0,1.35.56,2.41,1.22,2.71h0c7.25,3.61,12.62,14.61,12.62,27.41v91.14c1.6.3,3.2.45,4.9.45s3.3-.15,4.9-.45v-91.14c0-12.81,5.27-23.8,12.62-27.41h0c.75-.3,1.22-1.5,1.22-2.71"/>
  <path class="st0" d="M12.9,126.29c1.13.75,2.45,0,3.11-1.65v-45.95C6.21,90.59,0,109.42,0,130.66s6.31,39.92,16.01,51.98v-46.1c-.66-1.65-1.98-2.41-3.11-1.65-1.98,1.2-3.39,3.76-3.86,6.78v.15c-.09.45-.28.75-.66.75-.19,0-.38-.15-.47-.3-1.69-3.16-2.73-7.23-2.73-11.59s1.03-8.59,2.73-11.74c.09-.15.28-.3.47-.3.28,0,.56.3.66.75h0l-.09-.45c.38,3.14,1.89,6.16,3.96,7.36"/>
  <path class="st0" d="M78.08,134.73c-1.98,1.2-3.39,3.76-3.86,6.93h0c-.09.45-.28.75-.66.75-.19,0-.47-.15-.56-.45-1.6-3.16-2.55-7.08-2.55-11.44s.94-8.44,2.55-11.44c.09-.3.28-.45.56-.45s.56.3.66.75h0c.47,3.16,1.88,5.73,3.96,6.93,1.32.75,2.83-.3,3.39-2.56.09-.3.09-.6.09-.9-1.32-18.07-7.16-33.89-15.73-44.29v103.94c8.57-10.54,14.51-26.36,15.73-44.29,0-.3-.09-.6-.09-.9-.67-2.27-2.17-3.32-3.49-2.57"/>
  <path class="st1" d="M123.76,189.56l.75.9c-.66,1.81-1.41,3.16-2.35,4.07-.94.9-2.07,1.35-3.39,1.35-.94,0-1.79-.3-2.55-.6-.75-.45-1.5-1.05-2.16-1.96-.85-1.2-1.41-2.41-1.79-3.91-.38-1.5-.56-3.01-.56-4.82,0-1.5.09-2.86.38-4.22.28-1.35.66-2.56,1.22-3.61.66-1.35,1.5-2.41,2.35-3.16.94-.75,1.88-1.05,2.92-1.05.75,0,1.6.15,2.35.6.85.45,1.22.6,1.32.6.19,0,.38-.15.47-.3.19-.15.28-.45.38-.75h.66l.19,6.93h-.75c-.38-1.81-.85-3.16-1.6-4.22-.75-.9-1.6-1.35-2.64-1.35-1.5,0-2.64.9-3.58,2.71-.94,1.81-1.41,4.37-1.41,7.38s.47,5.28,1.41,7.08c.94,1.81,2.16,2.71,3.67,2.71.94,0,1.69-.3,2.45-1.05.86-.61,1.61-1.82,2.27-3.32"/>
  <path class="st1" d="M137.7,182.78v-6.18c0-.9-.09-1.5-.38-1.81s-.75-.6-1.41-.6v-1.05h5.74v1.05c-.66,0-1.03.3-1.32.6-.28.3-.38,1.05-.38,1.81v15.07c0,.9.09,1.5.38,1.81s.75.6,1.32.6v1.2h-5.74v-1.05c.66,0,1.13-.3,1.41-.6.28-.3.38-1.05.38-1.96v-7.23h-7.06v7.23c0,.9.19,1.5.38,1.96.28.3.75.6,1.41.6v1.05h-5.74v-1.2c.66,0,1.03-.15,1.32-.6.28-.3.38-1.05.38-1.81v-15.07c0-.9-.09-1.5-.38-1.81s-.75-.6-1.32-.6v-1.05h5.74v1.05c-.66,0-1.13.15-1.41.6-.28.3-.38,1.05-.38,1.81v6.18h7.06"/>
  <path class="st1" d="M147.87,191.82c0,.9.09,1.5.38,1.96.28.3.75.6,1.41.6v1.2h-5.84v-1.2c.66,0,1.13-.15,1.41-.6.28-.3.38-1.05.38-1.81v-15.07c0-.9-.09-1.5-.38-1.81s-.75-.6-1.41-.6v-1.05h5.84v1.05c-.66,0-1.13.15-1.41.6-.28.3-.38,1.05-.38,1.81v14.91"/>
  <path class="st1" d="M154.93,191.67c0,.9.09,1.5.38,1.96s.66.6,1.32.6h.19v1.2h-4.8v-1.2h.09c.56,0,1.03-.15,1.22-.6.28-.45.38-1.05.38-1.96v-16.12c-.19-.45-.47-.6-.75-.9-.28-.15-.66-.3-1.03-.45v-1.05h3.67l8.29,16.42v-12.66c0-.9-.19-1.65-.47-2.11-.28-.45-.75-.6-1.41-.6v-1.05h4.8v1.05c-.56,0-1.03.3-1.32.6-.28.45-.38,1.05-.38,1.96v18.83h-.75l-9.42-18.68v14.76"/>
  <path class="st1" d="M172.83,195.43v-1.2c-.66-.15-1.03-.3-1.32-.6-.19-.3-.28-.6-.28-1.05,0-.3,0-.45.09-.75,0-.3.09-.45.19-.9l.75-2.86h5.84l.85,2.86c.09.3.19.6.19.9s.09.6.09.75c0,.45-.09.9-.38,1.2-.28.3-.66.45-1.22.45v1.2h6.12v-1.2c-.56,0-.94-.3-1.32-.75s-.66-1.05-.94-2.11l-5.18-18.37h-.85l-5.37,18.53c-.28.9-.56,1.5-.85,1.96s-.66.6-1.13.75v1.2h4.7M175.28,177.5l2.26,8.59h-4.8l2.55-8.59Z"/>
  <path class="st1" d="M208.15,189.56l.75.9c-.66,1.81-1.41,3.16-2.35,4.07-.94.9-2.07,1.35-3.39,1.35-.94,0-1.79-.3-2.55-.6-.75-.45-1.5-1.05-2.16-1.96-.85-1.2-1.41-2.41-1.79-3.91s-.56-3.01-.56-4.82c0-1.5.09-2.86.38-4.22s.66-2.56,1.22-3.61c.66-1.35,1.5-2.41,2.35-3.16.94-.75,1.88-1.05,2.92-1.05.75,0,1.6.15,2.35.6.85.45,1.22.6,1.32.6.19,0,.38-.15.47-.3.19-.15.28-.45.38-.75h.66l.19,6.93h-.66c-.38-1.81-.85-3.16-1.6-4.22-.75-.9-1.6-1.35-2.64-1.35-1.5,0-2.64.9-3.58,2.71s-1.32,4.37-1.32,7.38.47,5.28,1.41,7.08,2.16,2.71,3.67,2.71c.94,0,1.69-.3,2.45-1.05.67-.61,1.42-1.82,2.08-3.32"/>
  <path class="st1" d="M215.02,191.82c0,.9.09,1.5.38,1.96.28.3.75.6,1.41.6v1.2h-5.84v-1.2c.66,0,1.13-.15,1.41-.6.28-.3.38-1.05.38-1.81v-15.07c0-.9-.09-1.5-.38-1.81s-.75-.6-1.41-.6v-1.05h5.84v1.05c-.66,0-1.13.15-1.41.6-.28.3-.38,1.05-.38,1.81v14.91"/>
  <path class="st1" d="M231.13,173.14l.19,5.43h-.75c-.19-1.5-.47-2.41-.94-3.01-.47-.6-1.13-.9-2.16-.9h-1.41v17.02c0,.9.09,1.5.38,1.81.28.45.75.6,1.41.6v1.2h-5.84v-1.05c.66,0,1.13-.3,1.41-.6.28-.45.38-1.05.38-1.96v-17.02h-1.41c-.94,0-1.69.3-2.16.9s-.75,1.5-.94,3.01h-.75l.19-5.43h12.42"/>
  <path class="st1" d="M237.26,191.82c0,.9.09,1.5.38,1.96.28.3.75.6,1.41.6v1.2h-5.84v-1.2c.66,0,1.13-.15,1.41-.6.28-.3.38-1.05.38-1.81v-15.07c0-.9-.09-1.5-.38-1.81-.28-.3-.75-.6-1.41-.6v-1.05h5.84v1.05c-.66,0-1.13.15-1.41.6-.28.3-.38,1.05-.38,1.81v14.91"/>
  <path class="st1" d="M253.64,189.56l.75.9c-.66,1.81-1.41,3.16-2.35,4.07-.94.9-2.07,1.35-3.39,1.35-.94,0-1.79-.3-2.55-.6-.75-.45-1.5-1.05-2.16-1.96-.85-1.2-1.41-2.41-1.79-3.91s-.56-3.01-.56-4.82c0-1.5.09-2.86.38-4.22.28-1.35.66-2.56,1.22-3.61.66-1.35,1.5-2.41,2.35-3.16.94-.75,1.88-1.05,2.92-1.05.75,0,1.6.15,2.35.6.85.45,1.22.6,1.32.6.19,0,.28-.15.47-.3s.28-.45.38-.75h.66l.19,6.93h-.75c-.38-1.81-.85-3.16-1.6-4.22-.75-.9-1.6-1.35-2.64-1.35-1.5,0-2.64.9-3.58,2.71s-1.32,4.37-1.32,7.38.47,5.28,1.41,7.08,2.16,2.71,3.67,2.71c.94,0,1.69-.3,2.45-1.05.86-.61,1.52-1.82,2.18-3.32"/>
  <path class="st1" d="M273.04,195.43c1.5,0,2.73-.6,3.67-1.81s1.41-2.56,1.41-4.37c0-1.5-.38-2.86-1.03-3.76s-1.6-1.65-2.92-1.96c1.03-.45,1.88-1.05,2.45-1.96.56-.9.85-1.96.85-3.31,0-1.65-.38-3.01-1.22-3.91-.85-.9-2.07-1.35-3.58-1.35h-6.68v1.05c.66,0,1.03.3,1.32.6.28.3.38,1.05.38,1.81v15.07c0,.9-.09,1.5-.38,1.81-.28.45-.75.6-1.32.6v1.2h7.06M269.85,174.65h2.16c1.13,0,1.88.3,2.45,1.05.56.6.85,1.65.85,3.01s-.28,2.41-.85,3.16-1.5,1.05-2.64,1.05h-1.88v-8.28h-.09ZM272.39,184.59c1.03,0,1.88.45,2.55,1.2.56.75.94,1.96.94,3.46s-.38,2.56-1.03,3.31c-.66.75-1.69,1.2-3.02,1.2-.85,0-1.32-.15-1.6-.45-.19-.3-.38-.9-.38-1.96v-6.63h2.55v-.14h0Z"/>
  <path class="st1" d="M284.25,195.43v-1.2c-.66-.15-1.03-.3-1.32-.6-.19-.3-.38-.6-.38-1.05,0-.3,0-.45.09-.75,0-.3.09-.45.19-.9l.75-2.86h5.84l.85,2.86c.09.3.19.6.19.9s.09.6.09.75c0,.45-.09.9-.38,1.2-.28.3-.66.45-1.32.45v1.2h6.12v-1.2c-.56,0-.94-.3-1.32-.75s-.66-1.05-.94-2.11l-5.18-18.37h-.85l-5.37,18.53c-.28.9-.56,1.5-.85,1.96s-.66.6-1.03.75v1.2h4.8M286.61,177.5l2.26,8.59h-4.8l2.55-8.59Z"/>
  <path class="st1" d="M299.23,191.67c0,.9.09,1.5.38,1.96.28.45.66.6,1.32.6h.09v1.2h-4.8v-1.2h.09c.56,0,1.03-.15,1.32-.6s.38-1.05.38-1.96v-16.12c-.19-.45-.47-.6-.75-.9-.28-.15-.66-.3-1.03-.45v-1.05h3.67l8.29,16.42v-12.66c0-.9-.19-1.65-.47-2.11-.28-.45-.75-.6-1.41-.6v-1.05h4.8v1.05c-.56,0-1.03.3-1.32.6-.28.45-.38,1.05-.38,1.96v18.83h-.75l-9.51-18.83v14.91"/>
  <path class="st1" d="M317.31,185.04l5.18-7.53c.28-.45.56-.75.66-1.05s.19-.6.19-.75c0-.45-.09-.75-.38-.9-.19-.15-.66-.3-1.32-.45v-1.05h5.93v1.05c-.47.15-.94.3-1.32.75-.47.3-.85.75-1.22,1.35l-3.77,5.43,3.77,9.19c.56,1.35.94,2.11,1.41,2.56.38.45.85.6,1.41.75v1.2h-6.21v-1.2c.47,0,.85,0,1.13-.15.28-.15.38-.45.38-.6s0-.45-.09-.75-.28-.75-.47-1.35l-2.92-7.08-2.26,3.16v4.37c0,.9.09,1.5.38,1.81.28.3.75.6,1.32.6v1.2h-5.65v-1.2c.66,0,1.13-.15,1.32-.6.28-.3.38-1.05.38-1.81v-15.07c0-.9-.09-1.5-.38-1.81-.28-.3-.75-.6-1.32-.6v-1.05h5.65v1.05c-.66,0-1.03.3-1.32.6-.28.3-.38,1.05-.38,1.81v8.13"/>
  <path class="st1" d="M131.67,93.6c0,.15.09.45.09,1.2,0,.9-.09,2.41-.38,4.82-.66,4.82-1.32,6.78-1.79,7.53-.28.3-2.73,1.2-9.8,2.56,0-2.86.19-13.26.19-15.52,7.91-1.21,11.11-.9,11.68-.6M114.44,95.41c0,2.86-.09,12.96-.09,15.22-1.41.3-8.01,1.2-9.51,1.5-.09-2.56-.66-12.21-.75-14.61,1.41-.45,8.57-1.81,10.36-2.11M114.53,65.13c-2.35-.15-2.35.75-2.35,1.5s.47,1.65.85,3.76c.19,1.2.75,2.56,1.22,10.84.09,3.16.09,5.88.09,8.13-1.6.3-11.3,1.65-11.68,1.81-4.24-2.56-7.06-2.11-7.34-.3-.19.9.19,1.81.56,3.31,0,0,2.35,7.08,3.39,19.28h0c.66,6.63,1.79,9.04,2.07,9.49.56.75.94,1.35,1.79.6.56-.45,1.22-1.65,1.79-4.82,1.32-.15,7.44-1.05,9.04-1.2-.28,27.72.85,38.26.94,39.92.28,2.26.66,4.22,1.41,3.31.85-1.05,1.6-3.46,2.26-12.06.28-3.91.56-8.44.75-14.91l.09-9.49v-7.83c5.46-.45,10.08-.75,11.96-.75,2.45,0,4.71.75,5.27.15.66-.75.28-2.41-.09-3.91-.28-.9-.66-1.96-1.32-3.76,3.11-8.13,4.52-10.09,5.18-11.29l.66-1.05c.94-1.5,1.13-1.96,1.22-2.56.09-.6-.38-1.65-.38-1.65-1.5-2.86-4.05-5.43-7.73-7.98l-.38-.15c-.38,0-1.5.9-1.5.9h0c-.28.3-3.39,1.2-12.34,3.16.38-10.99.85-12.66,1.03-13.41.09-.15.19-.6.38-1.05.19-.6.38-1.05.38-1.5s-.19-1.05-.28-1.35c-2.15-4.05-4.88-4.95-6.95-5.1"/>
  <path class="st1" d="M181.88,72.21c-1.13.45-.56,1.65-.56,1.65,2.73,5.43,4.9,8.59,8.57,11.44h.66c.85-.3,2.16-1.5,2.07-5.73v-.15c-.09-2.41-.75-4.52-2.07-6.18-.85-1.05-2.16-1.81-4.15-2.11h0c-2.08.01-3.3.46-4.52,1.06"/>
  <path class="st1" d="M164.92,72.51c0,.45.09,1.05.19,2.86,0,0,0,1.05-.09,2.26-.09,1.35-1.88,9.94-4.24,16.42-2.07,5.73-5.46,14.01-8.76,20.04-1.69,3.16-2.07,3.61-2.73,4.67-.47.75-1.32,1.65-.94,2.26.19.6,2.55,0,5.74-3.46,2.45-2.56,5.18-6.48,8.57-13.41.19,2.56.28,5.58.38,8.89,0,1.81.09,3.46.09,5.13v1.65c0,2.11-.09,4.07-.19,5.73-.19,5.43-.75,11.44-1.69,16.87l-.19,1.2v.15c.19,6.03,2.55,10.54,3.39,10.84.66.3,1.5-2.11,1.5-2.11.47-1.35,1.22-3.31,1.41-8.59v-.15c.19-30.73.38-37.21.47-37.96h0v-.3l.09-1.5v-.15c0-2.11-.75-4.37-2.26-6.93l.09-.3c1.32-2.86,2.16-5.13,2.83-6.63.94-2.11,1.88-4.22,2.83-6.33.94-1.96,1.03-2.11,1.13-2.86,0,0,0-.45-.09-.9-.66-4.52-3.2-7.23-6.59-8.59.18,0-.95-.45-.95,1.2"/>
  <path class="st1" d="M196.1,87.12c-1.88.75-13,3.91-24.11,5.58-1.22.15-2.16.3-2.45.75-.38.6-1.03,1.35-.09,2.71,0,0,2.55,3.61,4.52,4.52h.38c1.5-.3,2.26-.75,3.39-1.35,1.13-.45,3.39-1.05,3.39-1.05,7.06-2.41,10.17-3.46,20.63-3.01,0,0,2.26.3,3.11.3s2.26.15,2.83-1.5c.47-1.35-.28-3.31-1.03-4.37-.94-1.5-3.96-4.52-6.87-3.91-1.81.59-1.62.44-3.69,1.34"/>
  <path class="st1" d="M193.08,101.44h0c-1.32,0-3.49.6-6.68,1.81s-5.65,1.96-7.34,2.11c-.75.15-2.07.45-2.55,1.2-.19.45.09,1.81.85,2.86,0,0,1.5,2.26,4.52,2.11,0,0,4.71-.9,10.92-2.26l2.16-.45c1.32-.45,2.64-.15,3.2-1.05.47-.75-.19-2.56-1.03-3.76-.75-1.35-2.08-2.56-4.05-2.56"/>
  <path class="st1" d="M191.58,114.23c-.28,0-.85,0-7.06,2.26-3.58,1.35-4.33,1.5-4.52,1.65-1.79.45-3.02.15-3.2,1.65,0,.15.09.75.19,1.05.19.75.66,1.2,1.03,1.81l.19.15c1.22,1.2,2.07,1.5,3.86,1.35h.09c5.27-.75,9.42-1.81,12.34-2.71l.85-.3c1.03-.3,1.79-.3,1.79-1.65s-.75-2.56-1.32-3.61l-.09-.15c-.85-1.05-1.79-1.96-4.15-1.5"/>
  <path class="st1" d="M183.94,136.68c6.12-1.81,8.29-1.81,9.04-1.65-.47,3.76-.56,7.08-1.22,9.49-1.79.45-4.8,1.05-8.76,1.96-.19-2.11-.56-7.23-.75-9.34.75-.15,1.69-.45,1.69-.45M191.76,127.34s-5.84,3.16-11.39,3.61c-.19,0-.56-.15-1.32-.3-2.35-.6-3.39-.45-3.77.15h0c-.75,1.2-.19,2.11,0,2.71l.47,1.5c.19.9.66,2.56,2.45,14.76.38,3.31,1.03,5.13,1.88,6.18l.56.45c.47.15.85-.3,1.13-.75.28-.45.47-1.5,1.03-3.31,4.71-.75,8.2-1.2,10.27-1.35,4.43-.45,4.99-.75,5.27-2.11.19-.9-.47-2.71-1.13-4.52,1.79-4.07,1.69-4.22,2.45-5.58.75-1.5,1.98-2.71,2.07-4.22.19-1.5-2.45-5.58-7.25-8.44l-.28-.15c-.37.01-.93.46-2.44,1.36"/>
  <path class="st1" d="M303.75,69.65c-.66-.3-1.13,0-1.41.45s-.56,2.41-.47,3.91c.09,1.05-.19,1.96-1.6,5.58-2.73,6.18-6.68,12.51-8.01,14.46-1.32,1.81-3.3,4.82-2.92,5.58.28.75,2.45.6,4.8-1.2,1.69-1.2,4.9-4.98,9.51-11.74,1.22-1.65,2.45-3.46,3.86-5.43,1.5-1.96,1.88-2.86,1.98-3.46.09-.45-.09-1.35-.09-1.35-1.98-4.53-4.42-6.34-5.65-6.79"/>
  <path class="st1" d="M326.64,79.14c-.66.3-1.5.75-3.11,1.81h-.09c-1.41,1.05-3.96,2.26-7.82,3.76-1.69.6-3.2.9-3.3,1.96-.09,1.2.56,2.11,1.32,3.01s2.64,2.71,6.4,1.5c2.55-.9,12.24-4.37,13.19-5.58,0,0,.47-.45.56-1.05.19-1.2-1.5-3.46-2.07-4.07-1.78-2.24-4.42-1.63-5.08-1.33"/>
  <path class="st1" d="M302.34,92.24c-.66.6-1.03,2.11-1.22,3.31,0,0-.28,3.91-3.96,11.59-3.58,6.63-7.16,12.66-11.49,17.77-2.45,2.86-3.39,4.22-2.64,4.98.56.6,3.3-.3,6.03-2.26,2.16-1.65,5.27-4.82,8.85-10.54.09,1.96.19,3.76.19,5.58,0,6.03.28,12.21-.85,17.62-.28,1.2-.47,2.11-.47,2.41-.09.45-.28,1.05-.28,1.65,0,1.2.28,2.86.75,4.07.47,1.65,1.41,3.76,1.98,4.67.56,1.05,1.22,1.96,1.98,1.65.66-.3,1.6-5.28,1.6-10.24.09-4.98,0-13.56,0-18.53,0-.9.09-2.11.19-3.46.09-1.35.28-2.71.28-3.61,0-2.71-.75-4.37-2.07-7.08.66-1.05,1.6-2.71,2.83-4.82.94-1.81,1.88-3.16,2.73-4.22.56-.75.94-1.65,1.03-1.96.19-.75,0-1.35,0-1.35-1.03-4.07-3.3-6.78-3.86-7.23-.38-.31-.94-.61-1.6-.01"/>
  <path class="st1" d="M329.94,99.62c-1.6.9-11.02,4.37-22.33,7.38-1.32.3-2.55.45-2.83,1.35-.28,1.05.38,2.26.85,3.01.66.75,2.07,2.11,4.05,2.41h.19c.75,0,1.69-.3,2.92-.9l.19-.15c.56-.45,2.55-1.2,8.2-2.71.66,3.76,1.03,10.24,1.22,19.28v2.56c0,8.44-.38,11.29-.56,12.21-.38,0-.94-.15-2.16-.6-2.92-1.05-5.93-3.76-5.65-1.65.19,1.05,1.98,3.61,3.39,6.63,1.13,2.26,1.88,3.61,2.73,6.18.85,2.56,1.22,4.82,2.64,4.07,1.32-.75,3.11-2.71,4.24-5.43.75-1.65,1.32-3.61,1.5-5.73.19-3.16-.66-7.98-.85-12.06-.19-4.82-.19-8.59-.19-10.54v-4.82c0-1.65.19-2.86.47-4.67.19-.75.38-1.5.38-2.26,0-.45,0-.9-.19-1.5-.19-1.2-.75-2.26-1.5-3.16,2.92-.45,5.74-.75,8.57-.75,1.98,0,3.86-.15,4.71-.15s3.2,0,3.77-1.35c.85-2.11-.19-4.82-2.16-6.93-1.41-1.5-3.86-2.56-6.59-1.65-.77.3-3.7,1.35-5.01,1.96"/>
  <path class="st1" d="M230.48,68.59c-.47-.15-.94,0-1.13.15-.56.6-.28,3.31-.38,5.58-.19,3.31-.38,4.82-.85,7.38-2.45,12.21-6.21,23.35-11.39,32.99-1.03,1.96-2.64,4.37-1.32,4.22.66,0,2.26-1.05,3.3-1.96,1.69-1.5,3.58-3.76,6.31-8.44.19-.3,3.2-6.03,5.46-13.11,1.41.6,3.2.3,9.61-2.71.85-.45,2.07-.75,2.35-1.81.19-.45-.09-2.11-.94-3.31-.75-1.2-1.79-2.26-2.83-2.11-1.79.3-3.2,1.05-5.56,2.41-.09.15-.28.15-.38.3.19-.75.38-1.35.66-2.26,1.69-5.88,2.26-7.38,2.64-7.83.56-1.2.94-1.5.94-2.56,0-.9-.75-2.71-1.98-4.07-1.71-1.67-3.68-2.58-4.53-2.88"/>
  <path class="st1" d="M254.96,95.71q.38-.3.66-.75c-.28,2.41-.56,5.13-.94,8.13-.75-.15-1.6,0-2.35.15-.75.3-1.88.75-3.39,1.65v-6.48c2.08-1.2,5.65-2.41,6.03-2.71M256.38,82.6v.9c0,.9,0,2.41-.19,4.82-.09.9-.19,1.96-.19,3.01h0l-.09-.15c-.66-1.05-1.32-1.81-2.64-1.96,0,0-3.11,1.81-4.33,2.56h0l-.09.15v-5.88c4.99-3.01,6.88-3.46,7.54-3.46M256.47,73.26c-.47.15-.66.9-1.22,1.65l-.28.3h0c-.19.3-1.41,1.35-7.63,5.28-2.16-1.5-4.05-1.35-4.8-.6-.85.9.19,3.76.47,4.98.38,1.65,1.03,3.91,1.32,10.09l.28,38.26c-.28,5.73-.28,6.48-1.6,8.89s-1.32,2.26-1.03,4.67c.28,2.41,1.41,6.78,2.55,7.23,1.03.45,2.26-1.5,3.3-3.31.75-1.5,2.73-4.52,4.9-8.28,3.39-6.18,4.9-8.44,4.71-9.49-.19-.9-1.6-.6-8.38,3.91h0c0-3.76.09-15.52.09-20.94,1.79,3.01,3.39,5.73,4.71,7.98,2.35,4.22,5.09,8.59,7.91,13.26,2.92,4.98,5.93,5.28,13.47.15,1.6-1.05,3.3-2.71,2.92-3.61-.28-.75-1.5-1.05-3.39-1.65-5.93-1.96-11.02-5.43-15.73-10.69,1.88-2.41,3.39-4.52,4.43-6.18.56-.9,1.22-1.81,1.98-2.86.66-1.05,1.5-.9,1.5-2.11,0-1.5-1.22-3.61-2.16-4.67h0c-1.69-1.65-3.3-2.11-3.96-1.35-.66.75-.47.75-.47,1.2l-.09,2.26c0,.45-.56,4.22-3.77,10.84-.94-1.2-2.83-3.76-4.15-5.58-.56-.75-1.13-1.5-1.6-2.26l1.5-.6c1.5-.6,2.35-.9,2.83-1.05.28.3.85.9,1.03,1.05.66.45,1.5-.6,1.88-1.5s1.32-2.86,1.69-5.13h0c.56-3.01,1.03-7.08,1.69-12.06.28-2.11.47-3.46.56-3.76.28-1.5.94-2.71,1.5-4.37.56-1.65,1.13-2.71,1.13-3.76l-.28-.75c-1.69-2.56-3.67-4.52-6.97-5.28l-.85-.16Z"/>
  <path class="st1" d="M236.13,99.17c-1.32.6-3.11,1.5-3.11,1.5-3.77,1.96-5.27,2.86-7.16,3.61-.38.15-1.03,0-1.32.75-.28.75-.19,2.11.09,2.56.38.6.56,1.65,1.88,2.11.47.15,1.32-.15,1.98-.3.19.75.28,2.11.38,3.16.09,1.05.19,2.56.19,4.67-2.26.9-4.8,1.96-7.73,3.01-1.03.45-2.26.45-2.45,1.65-.09.6.28,1.81,1.32,3.46.66,1.05,1.79,2.26,2.83,2.11.75-.15,2.73-1.05,3.39-1.35.66-.3,1.88-.9,2.64-1.2,0,1.96-.09,3.91-.19,5.58,0,0-.09,1.35-.09,1.65-.38,3.61-1.03,5.43-1.88,6.33-.85.9-1.32,1.35-1.5,1.96,0,0-.19.3-.09,1.2.09,1.05.66,5.28,1.41,7.23.38.9.66,1.35.66,1.35,1.03.6,1.98-.75,3.2-2.71.85-1.35,1.6-2.56,2.26-3.46,1.13-1.65,3.11-4.52,5.09-7.38,1.98-3.01,3.02-4.67,3.49-5.43.85-1.35,1.32-1.96,1.22-2.56-.09-.9-1.5-.3-8.76,4.98.09-3.31.19-9.49.19-11.14.47-.15.85-.45.85-.45,2.73-1.5,5.46-2.71,5.93-3.01.56-.3,1.41-.15,1.6-1.5.09-.6-.56-2.41-1.6-3.76-1.03-1.5-2.35-1.65-3.02-1.05,0,0-.66.3-.94.6-.28.15-.19.15-1.5,1.05,0,0-.75.45-1.32.75,0-.3,0-.45.19-1.2.19-.9.28-1.81.47-2.56.38-1.81-.66-2.56-.75-2.86,1.88-.75,5.18-2.71,5.18-2.71.56-.45,1.79-1.05,2.07-2.11.19-.9-.28-1.81-1.03-3.01-1.04-1.23-2.08-2.58-4.05-1.53"/>
</svg>