<?xml version="1.0" encoding="UTF-8"?>
<svg id="Layer_1" xmlns="http://www.w3.org/2000/svg" version="1.1" xmlns:xlink="http://www.w3.org/1999/xlink" viewBox="0 0 344 261">
  <!-- Generator: Adobe Illustrator 30.0.0, SVG Export Plug-In . SVG Version: 2.1.1 Build 123)  -->
  <defs>
    <style>
      .st0 {
        fill: #117444;
      }

      .st1 {
        fill: #973240;
      }

      .st2 {
        fill: #07723c;
      }

      .st3 {
        fill: none;
      }

      .st4 {
        fill: url(#linear-gradient);
      }

      .st5 {
        clip-path: url(#clippath);
      }
    </style>
    <clipPath id="clippath">
      <path class="st3" d="M40.61,192.53c-2.5,6.35-8.13,6.2-10.62,5.31.29-1.17.5-2.4.61-3.66.54.11,1.09.16,1.64.15,2.82-.13,5.62-.74,8.37-1.82M16.05,185.33c2.65,2.66,8.54,7.89,10.75,7.89-.13.88-.46,1.63-.92,2.07-3.63-2.17-6.96-5.55-9.82-9.96M15.16,179.68l-1.44-12.15c1.88,2.12,8.72,5.02,8.97,5.02,1.56,5.04,2.72,10.42,3.45,15.99-4.93-1.45-9.39-6.52-10.98-8.85M40.71,164.06c1.93,6.48,2.31,15.86,2.26,19.74-3.89,4.81-9.98,5.74-12.52,5.6-.31-3.83-2.19-13.05-3.1-17.14h-.03c5.22-1.14,11.06-5.95,13.38-8.2M44.61,158.65c3.47-4.27,7.15-13.75,8.57-17.98,1.6,20.05-3.32,32.52-5.99,36.22-.18-6.12-1.8-14.76-2.58-18.29M19.52,146.05c3.39-2.47,6.49-5.98,9.16-10.36,3.89,6.01,7.19,13.04,9.78,20.83-3.73,5.03-10.24,7.4-13.04,7.97l-5.89-18.44ZM32.55,129.66h0c3.67-6.88,6.8-14.55,9.3-22.83,3.9,6.1,7.12,13.35,9.51,21.41-1.62,8.85-6.54,18.99-8.78,23.01-2.49-7.5-7.7-17.5-10.03-21.6M18.67,114.76c1.48-4.93,4.58-15.73,5.32-19.56,4.71.35,9.33,2.35,13.58,5.86-1.33,5.07-5.02,16.75-9.1,22.6-1.88-2.2-6.45-7.14-9.82-8.9M43.67,98.38c.65-3.97,1.93-13.22,1.93-18.37,2.83,4.05,8.3,16.82,7.3,35.69-1.95-4.5-6.56-14.23-9.23-17.31M23.94,72.39v.04c-.72,5.38-1.63,10.69-2.72,15.89-3.01.7-6.17,3.48-7.85,4.97-.87.75-1.36,1.19-1.29.89.21-.71.85-7.66,1.14-11.02,3.2-4.53,6.83-8.12,10.72-10.62,0-.01,0-.03,0-.04M25.83,87.32c.72-3.26,2.31-11.1,2.77-16.39,2.44-.39,8.31-.26,12.12,3.44.23,3.97.36,13.44-1.16,19.38-2.22-1.94-8.09-5.99-13.73-6.43M23.59,67.97l.33,1.77c-1.55,1.14-5.5,4.72-8.78,7.84,2.55-3.86,5.39-7.09,8.45-9.61M28.03,64.36c3.29-2.19,7.01-1.37,9.87,2.19h.05l-.05-.07c-3.24-1.38-7.91-.55-9.87,0v-2.12ZM38.3,60.18C15.63,63.02-1.4,96.8.26,135.63c1.53,35.72,18.45,63.81,39.35,65.28.52,0,6.12-4.43,7.23-14.01,16.16-19.56,11.27-49.74,10.03-57.36v.04c-.07-.42-.12-.89-.18-1.28,0,0,6.94-38.19-12.01-57.53-1.52-6.51-5.28-10.62-6.3-10.62h-.05l-.04.04Z"/>
    </clipPath>
    <linearGradient id="linear-gradient" x1="322.48" y1="-636.41" x2="322.99" y2="-636.41" gradientTransform="translate(-36524.09 -71949.6) scale(113.26 -113.26)" gradientUnits="userSpaceOnUse">
      <stop offset="0" stop-color="#ceac62"/>
      <stop offset="1" stop-color="#faf2c4"/>
    </linearGradient>
  </defs>
  <path class="st2" d="M116.31,163.98c0-9.57-2.85-12.34-6.55-12.34-1.47,0-2.43.06-3.43.13v31.54c1,.13,1.96.13,3.43.13,3.69,0,6.55-2.77,6.55-12.34v-7.12ZM109.76,187.6c-1.88.03-3.76-.15-5.63-.53-.37-.02-.67-.55-.66-1.19,0-.04,0-.08,0-.13v-36.36c-.03-.67.26-1.25.65-1.32,1.87-.38,3.75-.56,5.63-.52,5.68,0,9.36,5.01,9.36,16.49v7.13c0,11.28-3.66,16.43-9.36,16.43M134.91,187.21h-1.55c-.32,0-.58-.44-.58-.99,0-.02,0-.04,0-.06v-.99c-1.46,1.58-3.16,2.43-4.89,2.44-3.7,0-5.39-3.96-5.39-11.02v-17.45c0-.58.27-1.06.61-1.06,0,0,0,0,.01,0h1.5c.34,0,.61.45.62,1.03,0,.01,0,.02,0,.04v17.42c0,5.31,1.03,6.99,3.39,6.99,1.45-.16,2.86-.86,4.13-2.04v-22.37c0-.58.28-1.04.61-1.06h1.5c.33.02.59.5.58,1.06v26.99c.02.55-.22,1.02-.54,1.05-.01,0-.02,0-.04,0M149.48,170.67c0-5.67-1-8.9-4.01-8.9-1.21-.03-2.42.1-3.62.4v21.05c1.03.13,2.58.33,3.62.33,3.1,0,4.01-3.23,4.01-8.97v-3.89ZM145.43,187.57c-1.91.02-3.81-.27-5.68-.89-.52-.13-.65-.47-.65-1.26v-37.08c-.01-.52.22-.95.52-.99h1.58c.32,0,.58.43.58.97,0,0,0,.01,0,.02v9.83c1.19-.36,2.4-.54,3.62-.53,4.47,0,6.72,4.69,6.72,12.93v3.83c.04,8.05-2.04,13.2-6.72,13.2M164.38,173.09h-2.27c-3.74,0-4.74,1.45-4.74,5.21v.65c0,3.83,1.03,4.82,2.85,4.82,1.47-.07,2.91-.8,4.16-2.12v-8.58ZM166.5,187.25h-1.43c-.33,0-.61-.45-.61-1.02,0-.01,0-.02,0-.04v-1.19c-1.43,1.58-3.08,2.47-4.77,2.57-2.62,0-5.05-1.97-5.05-8.58v-.65c0-5.74,1.96-8.58,7.43-8.58h2.27v-2.12c0-4.43-.89-6-3.31-6-2,0-3.51.19-4.74.39h-.15c-.27,0-.54-.13-.54-.89v-1.84c0-.59.23-.89.66-.99,1.58-.48,3.18-.7,4.78-.66,4.31,0,6.01,3.7,6.01,9.97v18.47c.08.47-.08.96-.36,1.09-.06.03-.12.04-.19.03M172.93,187.22h-1.4c-.34,0-.61-.45-.62-1.03,0,0,0-.02,0-.03v-27.04c0-.58.26-1.05.6-1.06,0,0,.01,0,.02,0h1.5c.34,0,.62.46.62,1.04,0,0,0,.01,0,.02v26.99c0,.58-.27,1.05-.6,1.05,0,0-.01,0-.02,0M173.11,153.39h-1.58c-.34,0-.61-.45-.62-1.03,0,0,0-.02,0-.03v-4.19c0-.58.26-1.05.6-1.06,0,0,.01,0,.02,0h1.55c.34,0,.61.46.61,1.04,0,0,0,.02,0,.03v4.22c0,.57-.26,1.04-.59,1.05,0,0-.01,0-.02,0M188.72,187.21h-1.69c-.31-.05-.54-.52-.52-1.05v-37.28c-.01-.52.22-.95.52-.99h1.69c.29,0,.52.39.52.88,0,.04,0,.08,0,.11v37.28c.03.53-.2,1-.51,1.05,0,0,0,0,0,0M198.03,187.6c-1.64.03-3.28-.23-4.89-.8-.38-.12-.65-.46-.65-1.05v-1.84c.01-.46.24-.81.51-.79,0,0,0,0,0,0h.11c1.61.34,3.23.54,4.86.59,2,0,3.04-.89,3.04-3.76,0-1.58-.54-2.58-2.31-4.43l-3.1-3.17c-1.89-1.98-3.16-4.22-3.16-7.59,0-5.47,2.43-7.08,5.59-7.08,1.61,0,3.22.22,4.82.65.42.13.58.46.58,1.06v1.77c.02.46-.18.85-.45.89-.02,0-.04,0-.06,0h-.08c-1.08-.13-3.04-.4-4.78-.4s-2.89.4-2.89,3.11c0,1.58.73,2.58,2.12,4.03l3.04,3.1c2.58,2.58,3.39,4.89,3.39,7.97.12,5.31-2.2,7.66-5.68,7.66M208.93,187.12h-1.62c-.31-.05-.54-.52-.52-1.05v-37.66c-.01-.51.22-.95.52-.98h1.62c.29,0,.52.39.52.88,0,.03,0,.07,0,.1v37.75c.03.53-.2,1-.51,1.05,0,0,0,0,0,0M222.14,173.05h-2.27c-3.74,0-4.74,1.45-4.74,5.21v.65c0,3.83,1.03,4.82,2.85,4.82,1.47-.07,2.91-.8,4.16-2.12v-8.58ZM224.26,187.21h-1.43c-.33,0-.61-.45-.61-1.02,0-.01,0-.02,0-.04v-1.19c-1.41,1.58-3.05,2.46-4.74,2.57-2.62,0-5.05-1.97-5.05-8.58v-.65c0-5.74,1.97-8.58,7.43-8.58h2.3v-2.12c0-4.43-.88-6-3.31-6-2,0-3.5.19-4.74.39h-.15c-.27,0-.52-.13-.52-.89v-1.84c0-.59.23-.89.66-.99,1.58-.48,3.17-.7,4.77-.66,4.31,0,6.05,3.7,6.05,9.97v18.47c.02.59-.24,1.09-.58,1.12-.01,0-.02,0-.04,0M248.38,187.18h-1.47c-.33,0-.61-.45-.61-1.02,0-.01,0-.02,0-.04v-18.71c0-4.43-1.19-5.68-2.81-5.68-1.25.12-2.47.61-3.62,1.45.2,1.36.29,2.76.27,4.16v18.87c.02.53-.21.99-.52,1.06h-1.62c-.32-.03-.56-.49-.54-1.03,0-.01,0-.02,0-.03v-18.87c0-4.62-.77-5.54-2.39-5.54-1.12,0-2.46.89-3.77,2.04v22.3c.01.54-.23,1.01-.54,1.05h-1.65c-.32-.03-.56-.49-.54-1.03,0,0,0-.01,0-.02v-27.02c-.02-.55.22-1.03.55-1.06.01,0,.02,0,.03,0h1.55c.32,0,.58.45.58,1.01,0,.02,0,.04,0,.06v.99c1.34-1.54,2.9-2.41,4.51-2.51,1.17-.13,2.32.67,3.1,2.18,1.6-1.35,3.34-2.09,5.12-2.18,2.77,0,5.01,2.38,5.01,9.74v18.74c.02.55-.22,1.02-.54,1.05-.01,0-.02,0-.04,0M254.91,187.14h-1.5c-.34,0-.61-.45-.62-1.03,0,0,0-.02,0-.03v-26.95c0-.58.26-1.05.6-1.06,0,0,.01,0,.02,0h1.5c.34,0,.62.46.62,1.04,0,0,0,.01,0,.02v26.99c0,.58-.27,1.05-.6,1.05,0,0-.01,0-.02,0M254.98,153.39h-1.66c-.34,0-.61-.45-.62-1.03,0,0,0-.02,0-.03v-4.19c0-.58.26-1.05.6-1.06,0,0,.01,0,.02,0h1.58c.34,0,.61.46.61,1.04,0,0,0,.02,0,.03v4.22c0,.57-.26,1.04-.59,1.05,0,0-.01,0-.02,0M269.11,187.06c-1.27.39-2.56.59-3.85.59-4.2,0-6.59-5.08-6.59-12.87v-4.16c0-7.78,2.35-12.86,6.59-12.86,1.29,0,2.58.2,3.85.59.52.13.61.4.61,1.19v1.91c0,.53-.23.8-.52.8h-.11c-1.28-.27-2.57-.41-3.85-.4-2.46,0-3.85,2.83-3.85,8.77v4.16c0,5.94,1.35,8.78,3.85,8.78,1.29,0,2.58-.13,3.85-.4h.09c.27-.03.5.32.52.78,0,0,0,0,0,.01v1.92c0,.65-.11.98-.61,1.19M293.37,175.51c0-3.5-1.03-6.73-4.65-6.73h-4.74v14.58c1,.07,2.12.2,3.2.2,3.85,0,6.2-1.45,6.2-7.12v-.93ZM293.26,157.8c0-5.08-2.46-6.14-6.24-6.14-1.03,0-2.2.13-3.04.13v13.13h4.74c3.59,0,4.55-2.97,4.55-6.27v-.86ZM287.22,187.6c-1.69.05-3.37-.1-5.05-.46-.57,0-1.04-.78-1.04-1.76,0-.08,0-.15,0-.23v-35.23c-.07-.97.34-1.85.9-1.97.03,0,.07-.01.1-.01,1.64-.27,3.28-.4,4.93-.39,4.89,0,9.05,2.24,9.05,10.22v.89c.08,3.72-1.26,7.09-3.31,8.31,2.13,1.25,3.52,4.74,3.43,8.59v.89c0,8.78-4.2,11.15-9.02,11.15M308.68,173.08h-2.29c-3.74,0-4.74,1.45-4.74,5.21v.65c0,3.83,1.03,4.82,2.85,4.82,1.46-.08,2.89-.8,4.13-2.12l.05-8.58ZM310.75,187.24h-1.43c-.33,0-.61-.45-.61-1.02,0-.01,0-.02,0-.04v-1.19c-1.43,1.58-3.08,2.47-4.77,2.57-2.62,0-5.05-1.97-5.05-8.58v-.65c0-5.74,1.96-8.58,7.43-8.58h2.27v-2.12c0-4.43-.89-6-3.31-6-2,0-3.51.19-4.74.39h-.08c-.27,0-.52-.13-.52-.89v-1.84c0-.59.23-.89.66-.99,1.58-.48,3.18-.7,4.78-.66,4.27,0,6.05,3.7,6.05,9.97v18.47c0,.61-.3,1.11-.66,1.12M327.41,187.22h-1.5c-.33,0-.61-.45-.61-1.02,0-.01,0-.02,0-.04v-17.43c0-5.31-1.03-7-3.39-7-1.45.16-2.86.86-4.13,2.05v22.3c0,.58-.28,1.05-.62,1.06h-1.5c-.33-.02-.59-.49-.58-1.06,0,0,0,0,0,0v-26.95c-.02-.55.22-1.03.55-1.06.01,0,.02,0,.03,0h1.55c.32.03.57.51.55,1.06,0,0,0,0,0,0v.99c1.47-1.6,3.18-2.44,4.93-2.44,3.7,0,5.39,3.96,5.39,11.02v17.42c-.03.59-.31,1.04-.66,1.05M343.44,187.17h-2.23c-.29.07-.58-.16-.72-.6l-6.16-13v12.65c0,.58-.26,1.05-.6,1.06,0,0-.01,0-.02,0h-1.47c-.34,0-.61-.46-.61-1.04,0,0,0-.02,0-.03v-37.7c0-.57.26-1.04.59-1.05,0,0,.01,0,.02,0h1.47c.33,0,.61.45.61,1.02,0,.01,0,.02,0,.04v22.04l6.16-11.84c.13-.35.37-.53.61-.47h2.16c.3,0,.46.27.46.59-.02.22-.07.43-.15.6l-6.81,12.59,6.86,14.16c.06.13.09.3.08.47.07.19-.08.52-.27.52M273.97,89.35c.33,0,.61.45.61,1.02,0,.01,0,.02,0,.04v11.82c0,7.08-1.66,11.02-5.39,11.02h-1.46c-3.7,0-5.39-3.96-5.39-11.02v-1.91c0-5.31-1.03-7-3.39-7s-3.39,1.66-3.39,6.93v9.9c0,7.08-1.66,11.02-5.39,11.02h-12.87c-3.74,0-5.39-3.96-5.39-11.02v-8.53c0-.58.27-1.06.61-1.06,0,0,0,0,.01,0h1.5c.34,0,.61.45.62,1.03,0,.01,0,.02,0,.04v7.88c0,5.31,1.03,6.93,3.31,6.99h11.6c2.27-.06,3.31-1.72,3.31-6.99v-11.22c0-.18.03-.36.08-.52.39-5.48,2.04-8.51,5.32-8.51h1.5c3.69,0,5.39,3.96,5.39,11.02v1.85c0,5.31,1.03,6.99,3.39,6.99s3.39-1.65,3.39-6.99v-11.82c0-.58.26-1.05.6-1.06,0,0,.01,0,.02,0h1.43M286.84,89.34c.33,0,.61.45.61,1.02,0,.01,0,.02,0,.04v11.82c0,6.8-1.55,10.69-5.01,10.95-.04,0-.12.07-.15.07h-5.47c-.33.01-.61-.43-.61-1,0,0,0-.01,0-.02v-2.66c.01-.57.28-1.03.61-1.05h4.51c2.35,0,3.39-1.66,3.39-7v-11.17c0-.58.28-1.04.61-1.05h1.5M214.11,73.45c.34,0,.61.46.61,1.04,0,0,0,.02,0,.03v27.71c0,6.8-1.55,10.69-5.01,10.95-.04,0-.11.07-.15.07h-7.12c-.33.01-.61-.43-.61-1,0,0,0-.01,0-.02v-2.66c0-.58.28-1.04.61-1.05h6.2c2.35,0,3.39-1.66,3.39-7v-27.07c0-.58.27-1.05.6-1.05,0,0,.01,0,.02,0h1.46M246.14,123.84c.33,0,.61.45.61,1.02,0,.01,0,.02,0,.04v3.27c0,.57-.26,1.04-.59,1.05,0,0-.01,0-.02,0h-1.58c-.33,0-.6-.47-.6-1.04,0,0,0,0,0,0v-3.3c0-.57.26-1.04.59-1.05,0,0,.01,0,.02,0h1.58M273.97,118.72c.33,0,.61.45.61,1.02,0,.01,0,.02,0,.04v3.3c0,.57-.26,1.04-.59,1.05,0,0-.01,0-.02,0h-1.62c-.33,0-.61-.45-.61-1.02,0-.01,0-.02,0-.04v-3.3c0-.57.26-1.04.59-1.05,0,0,.01,0,.02,0h1.62M343.34,118.72c.34,0,.61.45.62,1.03,0,0,0,.02,0,.03v3.3c0,.58-.27,1.05-.6,1.05,0,0-.01,0-.02,0h-1.55c-.34,0-.61-.45-.62-1.03,0,0,0-.02,0-.03v-3.3c0-.58.27-1.05.6-1.05,0,0,.01,0,.02,0h1.55M332.36,83.9c-.34,0-.61-.45-.62-1.03,0,0,0-.02,0-.03v-3.33c0-.58.27-1.05.6-1.05,0,0,.01,0,.02,0h1.58c.34,0,.61.45.62,1.03,0,0,0,.02,0,.03v3.3c0,.58-.27,1.05-.6,1.05,0,0-.01,0-.02,0h-1.58M242.57,123.8c.34,0,.61.45.62,1.03,0,0,0,.02,0,.03v3.3c0,.58-.27,1.05-.6,1.05,0,0-.01,0-.02,0h-1.58c-.33,0-.61-.45-.61-1.02,0-.01,0-.02,0-.04v-3.3c0-.57.26-1.04.59-1.05,0,0,.01,0,.02,0h1.58M116.12,123.8c.33,0,.61.45.61,1.02,0,.01,0,.02,0,.04v3.3c0,.57-.26,1.04-.59,1.05,0,0-.01,0-.02,0h-1.58c-.33,0-.61-.45-.61-1.02,0-.01,0-.02,0-.04v-3.3c0-.57.26-1.04.59-1.05,0,0,.01,0,.02,0h1.58M112.54,123.8c.33,0,.61.45.61,1.02,0,.01,0,.02,0,.04v3.3c0,.57-.26,1.04-.59,1.05,0,0-.01,0-.02,0h-1.58c-.33,0-.61-.45-.61-1.02,0-.01,0-.02,0-.04v-3.3c0-.57.26-1.04.59-1.05,0,0,.01,0,.02,0h1.58M209.45,118.32c.19,0,.35.27.35.59h0v1.51c0,.33-.15.6-.34.6,0,0,0,0,0,0h-1.46c-1.27,0-1.23.65-1.23,3.63v1.84h2.73c.19,0,.35.26.35.58,0,0,0,0,0,0v1.52c0,.33-.15.59-.35.59,0,0,0,0,0,0h-5.89c-.2,0-.37-.25-.39-.59v-1.52c.02-.34.19-.6.39-.59h1.69v-1.97c0-5.48.52-6.01,2.73-6.2h1.43M308.87,89.35c-.2,0-.37-.25-.39-.59v-1.52c.02-.34.19-.6.39-.59h1.73v-1.97c0-5.48.52-6.01,2.7-6.14h1.47c.19,0,.35.27.35.59v1.58c0,.32-.15.59-.34.59,0,0,0,0-.01,0h-1.47c-1.27,0-1.23.66-1.23,3.64v1.84h2.73c.19,0,.35.27.35.59v1.52c0,.33-.15.59-.35.59h-5.93M145.74,108.62c-2.35,0-3.39-.99-3.39-6.34v-1.91c0-5.31,1.03-6.34,3.39-6.34s3.39.99,3.39,6.34v1.91c.04,5.31-1,6.34-3.39,6.34M146.51,89.35h-1.46c-3.62,0-5.32,3.82-5.35,10.56v2.58c-.04,2.11.2,4.2.69,6.13h-.2c-3.1,0-3.69-1.77-3.69-5.81v-2.37c0-7.08-1.66-11.03-5.39-11.03h-1.46c-3.24,0-4.93,3.04-5.28,8.51-.05.17-.07.35-.08.53v11.15c0,5.31-1.03,6.93-3.31,6.99h-11.55c-2.31-.06-3.31-1.72-3.31-6.99v-7.85c0-.58-.27-1.06-.61-1.06,0,0,0,0-.01,0h-1.55c-.34,0-.61.45-.62,1.03,0,.01,0,.02,0,.04v8.51c0,7.08,1.66,11.02,5.36,11.02h12.87c3.69,0,5.39-3.96,5.39-11.02v-9.9c0-5.31,1.08-6.93,3.39-6.93s3.39,1.66,3.39,7v3.69c0,6.34,2.31,9.24,6.44,9.24h6.36c3.66,0,5.31-3.83,5.39-10.56v-2.58c-.04-6.99-1.69-10.89-5.35-10.89M343.39,89.35c.33,0,.61.45.61,1.02,0,.01,0,.02,0,.04v11.82c0,7.08-1.65,11.02-5.39,11.02h-1.5c-1.81,0-3.1-.89-4.01-2.77-.88,1.77-2.2,2.77-4,2.77h-1.52c-1.81,0-3.1-.89-4-2.71-.89,1.77-2.2,2.71-4,2.71h-15.5c-3.7,0-5.39-3.96-5.39-11.02v-11.82c0-.57.26-1.04.59-1.05,0,0,.01,0,.02,0h1.5c.33,0,.61.45.61,1.02,0,.01,0,.02,0,.04v11.2c0,5.31,1,6.93,3.31,6.99h14.18c2.15-.06,3.2-1.58,3.27-6.2v-27.89c0-.56.25-1.03.58-1.06h1.5c.34.02.61.48.61,1.06v27.84c.12,4.75,1.16,6.2,3.39,6.2,2.35,0,3.39-1.66,3.39-7v-11.21c0-.58.27-1.05.6-1.05,0,0,.01,0,.02,0h1.51c.33,0,.61.45.61,1.02,0,.01,0,.02,0,.04v4.68c.03.06.04.13.04.2v6.27c0,5.31,1.03,6.99,3.39,6.99s3.39-1.65,3.39-6.99v-11.22c0-.58.27-1.05.6-1.05,0,0,.01,0,.02,0h1.55M199.22,89.35c.34.01.61.48.62,1.05v11.82c0,7.08-1.69,11.02-5.39,11.02h-1.5c-1.81,0-3.16-.89-4-2.77-.89,1.77-2.2,2.77-4.05,2.77h-1.47c-1.81,0-3.1-.89-4-2.71-.89,1.77-2.2,2.71-4,2.71h-5.52c-1.81,0-3.1-.89-4-2.71-.92,1.75-2.24,2.73-3.62,2.71-.04,0-.11.06-.15.06h-8.98c-.33.01-.6-.43-.61-.99v-2.66c.01-.57.28-1.03.61-1.05h8.07c2.23,0,3.27-1.51,3.39-6.2v-27.84c0-.58.28-1.04.61-1.05h1.5c.33,0,.61.45.61,1.02,0,.01,0,.02,0,.04v27.84c.11,4.62,1.12,6.14,3.31,6.2h4.24c2.16-.06,3.2-1.58,3.28-6.2v-11.94c0-.58.26-1.05.6-1.06,0,0,.01,0,.02,0h1.46c.34,0,.61.45.62,1.03,0,.01,0,.02,0,.04v11.94c.11,4.75,1.15,6.2,3.39,6.2,2.35,0,3.39-1.65,3.39-6.99v-9.43c0-.58.26-1.05.6-1.06,0,0,.01,0,.02,0h1.5c.34,0,.61.46.61,1.04,0,0,0,.02,0,.03v9.41c0,5.31,1.03,7,3.39,7s3.37-1.69,3.37-7v-11.26c0-.58.27-1.05.6-1.05,0,0,.01,0,.02,0h1.5M220.1,73.45c.29,0,.52.39.52.88,0,.04,0,.08,0,.11v37.78c.03.54-.2,1.01-.52,1.05h-1.62c-.33,0-.6-.47-.59-1.04,0,0,0-.01,0-.02v-37.78c0-.54.24-.98.56-.99,0,0,.01,0,.02,0h1.64M205.95,106.44c-.32-.03-.56-.49-.54-1.03,0,0,0-.01,0-.02v-26.55c0-.53.23-.97.54-.99h1.62c.31,0,.57.43.57.96,0,0,0,.02,0,.03v26.55c0,.56-.25,1.03-.57,1.05h-1.62M157.99,106.44c-.31-.05-.54-.52-.52-1.05v-25.91c0-.51.22-.95.52-.99h1.62c.28-.05.54.31.56.79,0,.07,0,.13,0,.2v25.93c.01.53-.21.98-.52,1.05h-1.62"/>
  <path class="st0" d="M41.15,60c22.73,0,41.16,31.55,41.16,70.49,0,38.93-18.42,70.5-41.15,70.5C18.43,201,0,169.44,0,130.51c0,0,0-.01,0-.02C0,91.56,18.42,60.01,41.15,60"/>
  <g class="st5">
    <rect class="st4" x="-1.48" y="60.18" width="65.08" height="140.76"/>
  </g>
  <path class="st1" d="M3.68,111.34l-.9-2.21c-1.37,7.51-2.04,15.35-1.98,23.22.1,8.1,1.08,16.09,2.88,23.58-.03-1.04.43-1.94,1.03-2.03,1.27,6.84,3.36,13.14,6.14,18.52l-2.58-17.53,1.03-.96c2.95,5.05,6.68,8.56,10.75,10.13-.52-3.7-5.46-16.52-7.87-22.46,6.8-3.98,11.12-9.28,12.46-11.47-4.04-4.24-8.46-7.3-13.09-9.03l7.23-24.53c-4.22,2.11-8.78,8.72-10.55,11.76l-.62-.71,1.6-16.3c-2.58,6.08-4.78,15.93-5.55,20.09"/>
</svg>