<?xml version="1.0" encoding="UTF-8"?>
<svg id="Layer_1" xmlns="http://www.w3.org/2000/svg" version="1.1" viewBox="0 0 344 261">
  <!-- Generator: Adobe Illustrator 30.0.0, SVG Export Plug-In . SVG Version: 2.1.1 Build 123)  -->
  <defs>
    <style>
      .st0 {
        fill: #43b8c6;
      }

      .st1 {
        fill: #af1c25;
      }
    </style>
  </defs>
  <g id="g1">
    <path id="path1" class="st1" d="M317.45,232.53h-15.94v-34.04c0-.53-7.97,6.99-7.97,6.99v28.26s.59,9.12,11.96,9.12,3.95,0,5.5,0c1.05,0,7.83-10.33,6.46-10.33"/>
    <path id="path2" class="st1" d="M290.73,233.18h-13.73s-3.02-1.49-5.17-6.19c-1.18-2.58-.81-5.55-5.05-12.1,0,0-1.96-2.27,1.36-3.02l13.44-3.8s8.15-11.84,5.76-10.94c-6.18,2.32-28.5,7.14-28.5,7.14l-7.01,11.63s12.34,3.16,13.07,8.43c.81,5.93-3.47,9.12-3.47,9.12,0,0-30.8-.27-31.67-.27s-9.78,9.69-8.56,9.69h38.09c.61,0,7.16-8.28,7.16-8.28,0,0,6.08,9.68,14.25,9.04.3-.02,3.91-.3,3.91-.3,0,0,7.46-10.14,6.13-10.14"/>
    <path id="path3" class="st1" d="M168.21,243.32c-.73-.06,7.57-10.03,7.57-10.03h12.4l8.42-11.62s1.33-1.9,3.32,0c0,0,1.92,10.56,6.64,11.78,0,0,2.66,1.18,11.89-.3,0,0,3.73-.08,3.73-7.14s-13.18-9.69-13.18-9.69l5.76-11.85s16.5-1.78,28.68-7.33c1.5.72-3.24,10.41-4.1,10.75-.86.34-6.76,2.85-15.72,4.33,0,0,14.79,14.41-7.18,30.12,0,0-16.22,6.16-20.51-10.98,0,0-8.79,12.08-9.52,12.08s-17.47-.06-18.2-.12"/>
    <path id="path4" class="st1" d="M143.67,243.43c-1.48-.27,7.97-10.6,7.97-10.6h14.62s9.89-11.4-10.04-16.56c0,0,4.87-6.38,6.05-7.29,1.18-.91,28.64,7.06,1.62,34.45,0,0-18.75.26-20.23,0"/>
    <path id="path5" class="st1" d="M147.07,232.99c1.03,0-6.76,10.56-7.33,10.56s-33.05.05-33.05.05c0,0-2.44-7.64-4.65-.17,0,0-18.16,4.07-21.93-10.45,0,0-.61-2.03-1.77,0l-8.69,10.45h-17.66c-.44,0,7.23-10.37,7.97-10.37s12.46.06,12.46.06l9.02-11.45s2.55-1.25,2.88,1.82c0,0,.11,14.76,17.44,9.33,10.3-12.31-7.19-16-8.19-16.68-1-.68,5.48-11.45,5.48-11.45,0,0,27.02-7.18,28.13-7.52,1.11-.34-1.99,10.37-4.54,11.17-2.55.8-14.62,2.85-14.62,2.85,0,0-2.55.34-.89,2.62,0,0,11.18,8.26,2.72,19.2,0,0,36.19-.01,37.22-.01"/>
    <path id="path6" class="st1" d="M30.65,221.59s-12.51,13.93,5.24,21.27c5.28,2.18,11.74.46,11.74.46,0,0,8.15-7.62,10.78-11.97,3.1-5.13-.48-10.8-5.98-15.23,0,0,10.26-5.01,9.52-7.6,0,0-14.17-1.29-20.23,11.4,0,0,1.8,2.02,5.12,2.55,3.32.53,10.45,6.26,2.19,10.61-6.81,3.58-22.08-2.64-16.99-10.27.87-1.3-.08-2.54-1.4-1.22"/>
    <path id="path7" class="st1" d="M136.26,215.12l-5.01-5.16-5.01,5.16,5.01,5.16,5.01-5.16"/>
    <path id="path8" class="st1" d="M131,223.33l-5.01-5.16-5.01,5.16,5.01,5.16,5.01-5.16"/>
    <path id="path9" class="st1" d="M141.02,223.33l-5.01-5.16-5.01,5.16,5.01,5.16,5.01-5.16"/>
    <path id="path10" class="st1" d="M289.17,221.36l-5.01-5.16-5.01,5.16,5.01,5.16,5.01-5.16"/>
    <path id="path11" class="st1" d="M310.59,250.65l-5.01-5.16-5.01,5.16,5.01,5.16,5.01-5.16"/>
    <path id="path12" class="st1" d="M217.35,200.32s24.73-7.88,25.47-7.94c.74-.06-.78,2.56-.78,2.56,0,0-24.51,7.32-25.12,7.73-.61.42.43-2.35.43-2.35"/>
    <path id="path13" class="st1" d="M102.18,200.76s24.73-7.88,25.47-7.94c.74-.06-.78,2.56-.78,2.56,0,0-24.5,7.32-25.11,7.74-.61.42.43-2.36.43-2.36"/>
    <path id="path14" class="st1" d="M224.19,145.04h-53.53c-2.35,0-34.99-57.16-34.99-60.26s14.29-23.03,12.86-23.21c-2.22-.27-22.25,0-22.25,0,0,0-28.68,48.6-28.68,50.39s27.82,52.42,28.68,52.42h21.76c1.24,0-28.07-49.66-27.69-51.4.29-1.34,3.46-7.08,4.82-8.78,1.36-1.69,33.91,60.18,35.97,60.18h54.28s11.75-19.34,8.78-19.34"/>
    <path id="path15" class="st1" d="M194.66,8.96c1.5,2.63,25.94,45.41,27.13,47.5,1.19,2.08-30.15,60.01-32.75,61.58-2.6,1.57-26.54-1.01-25.96.35.9,2.11,11.28,19.74,11.28,19.74,0,0,55.25.82,56.74-.09,1.49-.9,29.81-51.25,29.37-52.01-.44-.77-10.4-18.21-11.03-19.3-.63-1.1-27.37,50.07-29.02,50.62-1.27.43-7.69.52-9.8.17s33.22-60.59,32.18-62.41c-1.88-3.29-27.51-48.16-27.51-48.16,0,0-22.15-.62-20.65,2.01"/>
    <path id="path16" class="st1" d="M95.27,102.14c1.5-2.63,25.94-45.41,27.13-47.49,1.19-2.08,65.61-2.08,68.21-.5,2.6,1.57,12.05,24.35,12.92,23.17,1.35-1.83,11.28-19.75,11.28-19.75,0,0-26.18-50.08-27.67-50.98-1.49-.9-58.01-1.88-58.45-1.12-.44.77-10.4,18.21-11.03,19.31-.63,1.1,55.82.26,57.09,1.48.98.94,4.18,6.66,4.91,8.73.73,2.06-67.6-.41-68.64,1.41-1.88,3.29-27.51,48.16-27.51,48.16,0,0,10.25,20.22,11.75,17.59"/>
    <path id="path17" class="st0" d="M193.03,85.49c0-12.09-9.52-21.88-21.26-21.88s-21.26,9.8-21.26,21.88,9.52,21.88,21.26,21.88,21.26-9.8,21.26-21.88"/>
  </g>
</svg>